<?xml version="1.0" encoding="utf-8"?>
<!-- Generator: Adobe Illustrator 20.1.0, SVG Export Plug-In . SVG Version: 6.00 Build 0)  -->
<!DOCTYPE svg PUBLIC "-//W3C//DTD SVG 1.1//EN" "http://www.w3.org/Graphics/SVG/1.1/DTD/svg11.dtd">
<svg version="1.1" id="Layer_1" xmlns="http://www.w3.org/2000/svg" xmlns:xlink="http://www.w3.org/1999/xlink" x="0px" y="0px"
	 viewBox="0 0 512 512" style="enable-background:new 0 0 512 512;" xml:space="preserve">
<style type="text/css">
	.st0{fill:#C21613;}
</style>
<path class="st0" d="M260,284.8c-1.3,3.4-7.4,7.4-10.7,4.2c-62.7-40.3-113.9-117.4-129.1-154.7c-15.2-37.3,1.2-79.3,34.2-91.5
	l22.3-8.2C223.6,28.7,264,128.5,260,284.8L260,284.8z"/>
<path class="st0" d="M290.2,294.1c-2.1-0.2-5.7-3.1-4.7-5.5c7-42.2,36.2-83.4,52.5-97.8c16.2-14.4,42.3-11.5,56.3,5.7l9.4,11.5
	c14,17.1,11.5,42.3-5.6,56.3C398.1,264.2,379,289.3,290.2,294.1L290.2,294.1z"/>
<path class="st0" d="M231.1,311.3c1.5,1.5,2.4,6,0.2,7.2c-32,28.4-80.6,42.1-102.3,43.1c-21.7,1-40.1-17.7-40.2-39.8l0-14.9
	c-0.2-22.1,17.6-40.1,39.7-40.3C128.4,266.6,159,259.1,231.1,311.3L231.1,311.3z"/>
<path class="st0" d="M251.6,334.8c1.7-1.3,6.2-1.7,7.2,0.7c24.3,35.2,32.2,85,30.5,106.7c-1.6,21.7-22.4,37.7-44.3,35.2l-14.8-1.7
	c-21.9-2.5-37.7-22.3-35.2-44.3C195,431.5,191.2,400.2,251.6,334.8L251.6,334.8z"/>
<path class="st0" d="M284.8,329.5c-0.8-1.9,0.1-6.4,2.6-6.8c40.4-13.9,90.5-8,111-0.7c20.5,7.4,30.3,31.7,22,52.1l-5.6,13.8
	c-8.3,20.5-31.7,30.3-52.1,22C362.6,410,331.5,405.2,284.8,329.5L284.8,329.5z"/>
</svg>
